HIERARCHY
ROOT Hips
{
  OFFSET 40.9192 92.6879 18.85
  CHANNELS 6 Xposition Yposition Zposition Zrotation Xrotation Yrotation
  JOINT LeftUpLeg
  {
    OFFSET 8.64259 1.95398 -2.38835
    CHANNELS 3 Zrotation Xrotation Yrotation
    JOINT LeftLeg
    {
      OFFSET 43.7702 0 0
      CHANNELS 3 Zrotation Xrotation Yrotation
      JOINT LeftFoot
      {
        OFFSET 40.6238 0 0
        CHANNELS 3 Zrotation Xrotation Yrotation
        JOINT LeftToeBase
        {
          OFFSET 12.7242 0 0
          CHANNELS 3 Zrotation Xrotation Yrotation
          End Site
          {
            OFFSET 0 0 0
          }
        }
      }
    }
  }
  JOINT RightUpLeg
  {
    OFFSET -8.2249 1.95398 -2.59336
    CHANNELS 3 Zrotation Xrotation Yrotation
    JOINT RightLeg
    {
      OFFSET 43.5653 0 0
      CHANNELS 3 Zrotation Xrotation Yrotation
      JOINT RightFoot
      {
        OFFSET 40.6238 0 0
        CHANNELS 3 Zrotation Xrotation Yrotation
        JOINT RightToeBase
        {
          OFFSET 12.7242 0 0
          CHANNELS 3 Zrotation Xrotation Yrotation
          End Site
          {
            OFFSET 0 0 0
          }
        }
      }
    }
  }
  JOINT Spine
  {
    OFFSET 0.165834 0.87714 6.61349
    CHANNELS 3 Zrotation Xrotation Yrotation
    JOINT Spine1
    {
      OFFSET 7.38963 1.71661e-005 0
      CHANNELS 3 Zrotation Xrotation Yrotation
      JOINT Spine2
      {
        OFFSET 11.9445 1.14441e-005 0
        CHANNELS 3 Zrotation Xrotation Yrotation
        JOINT Spine3
        {
          OFFSET 14.7254 4.19617e-005 0
          CHANNELS 3 Zrotation Xrotation Yrotation
          JOINT Spine4
          {
            OFFSET 10.9679 0 0
            CHANNELS 3 Zrotation Xrotation Yrotation
            JOINT RightShoulder
            {
              OFFSET 2.46616 -1.6653 3.69651
              CHANNELS 3 Zrotation Xrotation Yrotation
              JOINT RightArm
              {
                OFFSET 13.0012 0 0
                CHANNELS 3 Zrotation Xrotation Yrotation
                JOINT RightForeArm
                {
                  OFFSET 28.7848 1.52588e-005 0
                  CHANNELS 3 Zrotation Xrotation Yrotation
                  JOINT RightHand
                  {
                    OFFSET 26.5688 1.52588e-005 0
                    CHANNELS 3 Zrotation Xrotation Yrotation
                    End Site
                    {
                      OFFSET 0 0 0
                    }
                  }
                }
              }
            }
            JOINT LeftShoulder
            {
              OFFSET 2.38034 -1.29275 -3.7523
              CHANNELS 3 Zrotation Xrotation Yrotation
              JOINT LeftArm
              {
                OFFSET 16.3182 6.10351e-005 0
                CHANNELS 3 Zrotation Xrotation Yrotation
                JOINT LeftForeArm
                {
                  OFFSET 27.0901 0 0
                  CHANNELS 3 Zrotation Xrotation Yrotation
                  JOINT LeftHand
                  {
                    OFFSET 24.5451 1.52588e-005 0
                    CHANNELS 3 Zrotation Xrotation Yrotation
                    End Site
                    {
                      OFFSET 0 0 0
                    }
                  }
                }
              }
            }
            JOINT Neck
            {
              OFFSET 5.0226 -0.0266342 0
              CHANNELS 3 Zrotation Xrotation Yrotation
              JOINT Head
              {
                OFFSET 6.69363 2.86102e-005 0
                CHANNELS 3 Zrotation Xrotation Yrotation
                End Site
                {
                  OFFSET 0 0 0
                }
              }
            }
          }
        }
      }
    }
  }
}
MOTION
Frames:	10
Frame Time:	0.0416667
-300.883 95.3207 -280.367 89.7153 -41.5954 89.8255 -171.702 10.5357 90.4131 -22.6759 31.811 -3.96794 58.203 -5.94082 28.1263 28.9247 -0.975843 10.217 170.47 0.484882 86.8431 -10.3347 -5.1957 1.42428 66.758 -2.78293 -1.45001 29.3546 0.174076 -2.44659 -0.323177 6.62268 -90.3768 13.626 -0.823849 -0.647491 1.95513 -0.851537 -0.610618 -20.58 -0.59116 -0.865151 -0.567305 -0.591165 -0.865158 93.7803 -41.3991 -96.5527 33.7123 -9.64448 6.45666 -8.24691 -26.5842 -42.1886 -5.294 -1.00101 8.05773 -89.8731 -56.8831 80.289 -25.1366 14.5602 3.4453 5.25006 15.1175 -32.5025 7.21566 0.652077 4.46704 11.1576 3.76665 7.21158 -10.8018 2.23881 -1.0012 
-300.782 95.325 -280.427 89.606 -41.5722 90.0111 -171.748 10.564 90.4813 -23.1278 29.9831 -3.64869 58.836 -5.16009 27.1596 28.6072 -0.986288 7.735 170.648 -0.392531 87.1307 -8.65362 -5.48269 1.3354 66.8011 -3.09246 -1.6426 28.5929 0.2119 -3.3871 -0.234746 6.61628 -90.4187 13.6386 -0.668839 -0.751652 1.96764 -0.701268 -0.721495 -20.5664 -0.41203 -0.917912 -0.55374 -0.412041 -0.917911 93.3611 -41.1354 -97.3281 34.0995 -9.34001 6.90126 -7.56468 -25.6463 -42.0498 -5.67607 -0.974519 7.2703 -91.6184 -56.8345 77.8598 -25.3365 14.8446 3.66319 2.26433 10.1677 -31.5775 8.28473 0.575665 2.72073 9.40305 4.68233 6.77689 -9.3351 3.30996 -0.507917 
-300.667 95.2884 -280.612 89.298 -41.8373 89.9032 -171.574 10.1646 90.4 -23.0818 25.1558 -3.474 60.4649 -3.34856 24.3946 30.2705 1.00635 2.1122 171.415 -1.09783 87.5141 -6.8444 -5.63412 0.522513 67.7522 -3.92344 -2.11407 26.7185 0.367672 -5.49307 -0.0809226 6.61123 -90.4012 13.6495 -0.355345 -0.757576 1.97836 -0.38834 -0.741214 -20.5551 -0.111243 -0.829344 -0.542443 -0.111252 -0.829345 92.844 -41.7207 -98.0916 33.7849 -8.76463 7.16639 -7.63787 -25.2996 -41.9526 -5.17738 -0.862218 6.00039 -94.0211 -56.5767 74.4807 -24.918 14.2293 4.03946 3.14 11.2133 -31.9447 8.86277 0.79685 4.64115 7.27215 4.59253 6.50841 -7.38381 3.39006 -0.281536 
-300.647 95.1369 -280.88 89.3078 -41.6801 89.8834 -171.356 9.46951 90.1844 -23.4295 17.2367 -3.12021 63.4287 -0.366477 18.6807 31.0691 2.26029 -6.98143 171.671 -1.27132 87.511 -6.43868 -7.10612 0.116448 68.4152 -4.34199 -2.34152 27.3479 0.515648 -8.13049 0.0187032 6.69721 -90.3152 13.4788 -0.115551 -0.616581 1.80768 -0.142578 -0.610896 -20.7263 0.0751084 -0.622795 -0.713665 0.0750724 -0.622805 92.4696 -42.7386 -98.5031 33.3737 -8.39115 6.49331 -7.1252 -24.4519 -41.2128 -5.15004 -0.812302 5.32591 -95.1889 -55.6944 72.6351 -24.7589 14.3102 3.64838 2.18832 9.81704 -31.3966 8.99185 0.685646 3.4213 6.36385 4.05001 5.5404 -6.00577 3.06285 0.231462 
-300.6 94.9708 -281.228 90.0554 -41.1247 90.2013 -171.452 7.69456 89.6874 -23.3286 5.57726 -2.34986 67.8913 3.40763 8.57392 30.0215 2.16687 -15.7142 171.828 -2.70434 87.9456 -6.61385 10.7268 -0.234336 70.3858 -5.04833 -2.54737 30.1187 -1.14451 22.453 0.0954135 6.91212 -90.1823 13.0497 0.101806 -0.377123 1.37868 0.0851338 -0.381253 -21.1562 0.210444 -0.329096 -1.14351 0.210458 -0.329094 92.5957 -44.1158 -97.9962 32.418 -8.04341 5.34966 -7.10666 -24.1633 -41.2591 -5.13721 -0.823579 5.62076 -95.7187 -54.4153 71.5436 -24.5139 14.5371 2.94316 2.18745 9.60002 -31.7675 7.79499 0.614584 3.54365 6.70351 3.39965 4.19023 -4.72227 2.63638 0.5374 
-300.3 94.8764 -281.656 90.8615 -40.2423 90.8747 -171.527 4.55484 89.5786 -20.9184 -7.40846 -1.59651 73.604 6.84658 -5.32853 26.1789 0.509917 -21.1537 172.271 -3.09351 87.9102 -7.03037 11.4233 -0.808013 69.6873 -5.23195 -2.67307 31.863 -0.658249 21.4075 0.188631 7.13593 -90.1376 12.6024 0.309137 -0.310986 0.931447 0.295156 -0.324303 -21.6038 0.388321 -0.203701 -1.59121 0.388305 -0.203705 93.6677 -45.1423 -96.027 31.5677 -7.966 4.04031 -6.75421 -23.7772 -41.2761 -4.58561 -0.789152 6.0928 -97.0591 -53.6973 69.4466 -24.0361 14.1079 2.38142 3.88905 11.6697 -32.7408 6.29052 0.608151 4.80688 6.71118 2.58255 3.28375 -3.55658 1.99078 0.652361 
-299.835 94.3058 -282.085 91.292 -39.6149 91.5828 -171.532 1.52321 89.2164 -18.5774 -19.7087 -0.957811 81.151 9.06383 -20.4772 21.2032 -1.88101 -22.6706 172.716 -0.998408 90.0907 -12.2896 12.2266 -1.00912 70.7835 -5.11312 -2.57205 34.4679 -0.0428491 19.0387 0.226388 7.30297 -90.0731 12.2684 0.415362 -0.1923 0.597483 0.406492 -0.210403 -21.9382 0.453943 -0.0585742 -1.92554 0.45395 -0.0585794 94.099 -46.5377 -95.0803 30.818 -7.5294 3.74647 -7.13604 -23.566 -41.833 -2.60288 -0.727678 8.29342 -97.0035 -52.1344 69.044 -24.6099 13.8276 1.80379 3.59578 10.8221 -32.5502 6.25784 0.528067 3.84745 6.18501 1.89632 1.79867 -1.51292 1.59575 0.876163 
-299.339 93.2022 -282.341 90.7311 -39.3314 91.3509 -171.599 -0.319078 89.8035 -16.9264 -29.1597 -0.662857 89.1789 10.2246 -32.4744 17.8991 -3.63731 -22.4441 174.415 5.58794 88.9485 -24.5372 9.7773 -2.22726 76.4055 -6.46522 -2.93151 32.9628 0.117514 6.35545 0.202693 7.39153 -89.977 12.091 0.413877 0.000377393 0.420101 0.413482 -0.0178426 -22.1156 0.394616 0.124753 -2.10292 0.394589 0.124737 94.5592 -47.6983 -94.1539 30.6363 -6.71581 3.70107 -8.16702 -23.9236 -42.0048 -6.68453 -1.11725 8.38483 -96.5114 -50.731 69.3158 -24.9348 14.3458 1.83516 1.66184 6.76941 -33.7952 4.88137 0.272315 1.2995 5.99231 1.2743 0.444411 0.285666 1.23186 1.13761 
-298.744 92.145 -282.309 90.0364 -39.4061 91.2099 -171.576 -2.50588 89.4167 -13.6325 -34.7985 -0.389027 95.4804 12.6815 -38.6112 17.1382 -4.01164 -22.5606 176.217 15.5804 90.3113 -40.7479 0.821466 -2.87502 75.3239 -6.16857 -2.92041 36.8047 0.340925 -10.3839 0.106468 7.5015 -89.9608 11.8708 0.230193 0.0535855 0.199908 0.232332 0.0434016 -22.3354 0.203453 0.120285 -2.32272 0.203441 0.120287 94.564 -47.8737 -94.119 30.9219 -6.47265 4.15235 -8.99853 -24.8963 -42.7333 -8.70558 -1.06785 5.47875 -97.1139 -50.5705 68.3883 -23.4805 13.3198 2.07072 3.28224 7.12504 -36.993 7.92082 0.618458 3.4895 5.44808 1.21686 -0.223092 3.23605 1.38659 2.15305 
-297.849 91.4766 -282.036 90.5132 -38.963 91.4317 -171.558 -6.62591 89.1276 -8.23408 -36.0338 -0.247447 99.057 16.9998 -39.343 18.2636 -3.12516 -24.0927 176.522 21.969 90.7775 -46.9065 -3.48162 -2.38834 72.2036 -5.05177 -2.54789 41.2166 0.184171 -9.72051 -0.0943975 7.72017 -89.9543 11.4337 -0.166457 0.107341 -0.237234 -0.161559 0.114554 -22.7725 -0.191036 0.052348 -2.75981 -0.191031 0.0523489 94.582 -47.9671 -94.0742 31.0448 -6.30852 5.02314 -9.56837 -26.6338 -41.3429 -0.804231 -0.488544 1.27952 -96.7903 -49.9218 68.651 -22.7225 13.7526 0.239681 0.216395 2.75563 -37.576 7.4735 0.221567 -0.715588 3.93224 1.44627 -0.74888 5.16908 1.83996 3.48307 
